<svg width="416" height="333" viewBox="0 0 416 333" fill="none" xmlns="http://www.w3.org/2000/svg">
<g filter="url(#filter0_ddd_102_3)">
<path d="M87.8494 137.235L26.0873 106.588C25.493 106.293 24.7815 106.648 24.6598 107.3L16.0591 153.392C16.0207 153.598 16.0478 153.811 16.1367 154L36.3427 197.098C36.6509 197.755 37.535 197.876 38.0075 197.324L88.1643 138.781C88.5883 138.286 88.4332 137.525 87.8494 137.235Z" fill="#634F69" fill-opacity="0.45"/>
<path d="M87.8494 137.235L26.0873 106.588C25.493 106.293 24.7815 106.648 24.6598 107.3L16.0591 153.392C16.0207 153.598 16.0478 153.811 16.1367 154L36.3427 197.098C36.6509 197.755 37.535 197.876 38.0075 197.324L88.1643 138.781C88.5883 138.286 88.4332 137.525 87.8494 137.235Z" fill="url(#paint0_linear_102_3)" fill-opacity="0.7" style="mix-blend-mode:overlay"/>
<path d="M25.8651 107.036L87.6271 137.683C87.919 137.828 87.9966 138.209 87.7846 138.456L37.6278 196.999C37.3916 197.274 36.9495 197.214 36.7954 196.886L16.5894 153.788C16.5449 153.693 16.5314 153.587 16.5506 153.484L25.1513 107.392C25.2122 107.066 25.5679 106.888 25.8651 107.036Z" stroke="#F5C0C0"/>
</g>
<g filter="url(#filter1_ddd_102_3)">
<path d="M88.5177 137.797L164.702 110.957C165.343 110.732 166.017 111.197 166.034 111.876L167.978 190.072C167.99 190.579 167.621 191.016 167.119 191.087L55.7913 206.958C55.6011 206.986 55.4072 206.957 55.2326 206.877L37.2125 198.596C36.6065 198.317 36.4378 197.535 36.8753 197.031L88.0951 138.084C88.2087 137.953 88.3543 137.854 88.5177 137.797Z" fill="#634F69" fill-opacity="0.45"/>
<path d="M88.5177 137.797L164.702 110.957C165.343 110.732 166.017 111.197 166.034 111.876L167.978 190.072C167.99 190.579 167.621 191.016 167.119 191.087L55.7913 206.958C55.6011 206.986 55.4072 206.957 55.2326 206.877L37.2125 198.596C36.6065 198.317 36.4378 197.535 36.8753 197.031L88.0951 138.084C88.2087 137.953 88.3543 137.854 88.5177 137.797Z" fill="url(#paint1_linear_102_3)" fill-opacity="0.7" style="mix-blend-mode:overlay"/>
<path d="M88.6838 138.268L164.868 111.429C165.189 111.316 165.526 111.548 165.534 111.888L167.478 190.085C167.484 190.338 167.3 190.556 167.049 190.592L55.7208 206.463C55.6257 206.477 55.5287 206.463 55.4414 206.423L37.4213 198.141C37.1183 198.002 37.0339 197.611 37.2527 197.359L88.4726 138.412C88.5294 138.347 88.6022 138.297 88.6838 138.268Z" stroke="#F5C0C0"/>
</g>
<g filter="url(#filter2_ddd_102_3)">
<path d="M165.603 110.39L104.531 34.8291C104.168 34.38 103.501 34.3308 103.076 34.7217L25.571 106.015C25.0547 106.49 25.1751 107.335 25.8036 107.647L87.6256 138.314C87.8652 138.433 88.1423 138.451 88.3952 138.364L165.15 111.964C165.806 111.739 166.039 110.93 165.603 110.39Z" fill="#634F69" fill-opacity="0.45"/>
<path d="M165.603 110.39L104.531 34.8291C104.168 34.38 103.501 34.3308 103.076 34.7217L25.571 106.015C25.0547 106.49 25.1751 107.335 25.8036 107.647L87.6256 138.314C87.8652 138.433 88.1423 138.451 88.3952 138.364L165.15 111.964C165.806 111.739 166.039 110.93 165.603 110.39Z" fill="url(#paint2_linear_102_3)" fill-opacity="0.7" style="mix-blend-mode:overlay"/>
<path d="M104.142 35.1434L165.214 110.704C165.432 110.974 165.316 111.379 164.988 111.491L88.2326 137.891C88.1062 137.935 87.9676 137.926 87.8478 137.866L26.0258 107.199C25.7116 107.043 25.6513 106.62 25.9095 106.383L103.415 35.0897C103.627 34.8943 103.961 34.9189 104.142 35.1434Z" stroke="#F5C0C0"/>
</g>
<g filter="url(#filter3_ddd_102_3)">
<path d="M229.434 8H180.188C179.364 8 178.894 8.9417 179.389 9.60081L266.892 126.025C267.369 126.66 268.359 126.513 268.631 125.767L305.572 24.2734C305.791 23.6706 305.394 23.0201 304.758 22.9393L250.172 16.0082C250.09 15.9978 250.01 15.9774 249.933 15.9474L229.798 8.06875C229.682 8.02332 229.558 8 229.434 8Z" fill="#634F69" fill-opacity="0.45"/>
<path d="M229.434 8H180.188C179.364 8 178.894 8.9417 179.389 9.60081L266.892 126.025C267.369 126.66 268.359 126.513 268.631 125.767L305.572 24.2734C305.791 23.6706 305.394 23.0201 304.758 22.9393L250.172 16.0082C250.09 15.9978 250.01 15.9774 249.933 15.9474L229.798 8.06875C229.682 8.02332 229.558 8 229.434 8Z" fill="url(#paint3_linear_102_3)" fill-opacity="0.7" style="mix-blend-mode:overlay"/>
<path d="M180.188 8.5H229.434C229.496 8.5 229.558 8.51166 229.616 8.53437L249.751 16.413C249.866 16.458 249.986 16.4886 250.109 16.5042L304.695 23.4353C305.013 23.4757 305.212 23.801 305.102 24.1024L268.161 125.596C268.025 125.969 267.53 126.042 267.291 125.725L179.789 9.30041C179.541 8.97085 179.776 8.5 180.188 8.5Z" stroke="#F5C0C0"/>
</g>
<g filter="url(#filter4_ddd_102_3)">
<path d="M179.998 8.99685L267.043 125.057C267.578 125.771 266.98 126.776 266.097 126.646L166.962 112.045C166.427 111.966 166.051 111.475 166.115 110.937L178.205 9.47853C178.311 8.58269 179.456 8.27511 179.998 8.99685Z" fill="#634F69" fill-opacity="0.45"/>
<path d="M179.998 8.99685L267.043 125.057C267.578 125.771 266.98 126.776 266.097 126.646L166.962 112.045C166.427 111.966 166.051 111.475 166.115 110.937L178.205 9.47853C178.311 8.58269 179.456 8.27511 179.998 8.99685Z" fill="url(#paint4_linear_102_3)" fill-opacity="0.7" style="mix-blend-mode:overlay"/>
<path d="M179.598 9.29685L266.643 125.357C266.91 125.714 266.611 126.216 266.17 126.151L167.035 111.55C166.767 111.511 166.58 111.265 166.612 110.996L178.701 9.53769C178.755 9.08977 179.327 8.93598 179.598 9.29685Z" stroke="#F5C0C0"/>
</g>
<g filter="url(#filter5_ddd_102_3)">
<path d="M167.438 191.788L194.43 209.523C194.847 209.796 195.401 209.722 195.73 209.347L267.788 127.379C268.311 126.784 267.968 125.846 267.184 125.729L166.176 110.675C165.562 110.584 165.014 111.068 165.029 111.689L166.987 190.976C166.995 191.304 167.164 191.607 167.438 191.788Z" fill="#634F69" fill-opacity="0.45"/>
<path d="M167.438 191.788L194.43 209.523C194.847 209.796 195.401 209.722 195.73 209.347L267.788 127.379C268.311 126.784 267.968 125.846 267.184 125.729L166.176 110.675C165.562 110.584 165.014 111.068 165.029 111.689L166.987 190.976C166.995 191.304 167.164 191.607 167.438 191.788Z" fill="url(#paint5_linear_102_3)" fill-opacity="0.7" style="mix-blend-mode:overlay"/>
<path d="M194.705 209.105L167.712 191.37L167.438 191.788L167.712 191.37C167.575 191.28 167.491 191.128 167.487 190.964L165.529 111.677C165.522 111.366 165.796 111.124 166.103 111.17L267.111 126.224C267.502 126.282 267.674 126.751 267.412 127.049L195.355 209.017C195.19 209.204 194.913 209.242 194.705 209.105Z" stroke="#F5C0C0"/>
</g>
<circle cx="88" cy="138" r="2" fill="#F5C0C0"/>
<circle cx="37" cy="198" r="2" fill="#F5C0C0"/>
<g filter="url(#filter6_ddd_102_3)">
<path d="M177.974 8.5422L104.83 34.5275C104.18 34.7583 103.954 35.5618 104.387 36.0981L165.019 111.167C165.574 111.853 166.681 111.537 166.79 110.661L179.301 9.60737C179.392 8.86924 178.675 8.29321 177.974 8.5422Z" fill="#634F69" fill-opacity="0.45"/>
<path d="M177.974 8.5422L104.83 34.5275C104.18 34.7583 103.954 35.5618 104.387 36.0981L165.019 111.167C165.574 111.853 166.681 111.537 166.79 110.661L179.301 9.60737C179.392 8.86924 178.675 8.29321 177.974 8.5422Z" fill="url(#paint6_linear_102_3)" fill-opacity="0.7" style="mix-blend-mode:overlay"/>
<path d="M104.997 34.9986L178.141 9.01335C178.492 8.88886 178.85 9.17687 178.805 9.54594L166.293 110.6C166.239 111.038 165.685 111.196 165.408 110.852L104.776 35.7839C104.559 35.5158 104.673 35.114 104.997 34.9986Z" stroke="#F5C0C0"/>
</g>
<g filter="url(#filter7_ddd_102_3)">
<path d="M194.34 209.053L267.095 127.02C267.544 126.515 268.354 126.59 268.701 127.169L307.628 192.092C307.85 192.462 307.81 192.933 307.528 193.259L280.609 224.49C280.501 224.615 280.364 224.711 280.21 224.77L246.205 237.836C245.934 237.94 245.63 237.921 245.374 237.784L194.616 210.598C194.047 210.293 193.912 209.536 194.34 209.053Z" fill="#634F69" fill-opacity="0.45"/>
<path d="M194.34 209.053L267.095 127.02C267.544 126.515 268.354 126.59 268.701 127.169L307.628 192.092C307.85 192.462 307.81 192.933 307.528 193.259L280.609 224.49C280.501 224.615 280.364 224.711 280.21 224.77L246.205 237.836C245.934 237.94 245.63 237.921 245.374 237.784L194.616 210.598C194.047 210.293 193.912 209.536 194.34 209.053Z" fill="url(#paint7_linear_102_3)" fill-opacity="0.7" style="mix-blend-mode:overlay"/>
<path d="M194.714 209.385L267.469 127.352L267.098 127.023L267.469 127.352C267.694 127.099 268.099 127.137 268.272 127.426L307.2 192.349C307.31 192.534 307.29 192.77 307.149 192.933L280.23 224.163C280.176 224.226 280.107 224.274 280.03 224.303L246.026 237.369C245.89 237.421 245.738 237.412 245.61 237.343L194.852 210.157C194.567 210.005 194.5 209.626 194.714 209.385Z" stroke="#F5C0C0"/>
</g>
<g filter="url(#filter8_ddd_102_3)">
<path d="M398.308 114.16L269.086 126.35C268.352 126.42 267.943 127.232 268.324 127.863L307.337 192.385C307.559 192.753 307.991 192.937 308.41 192.844L371.107 178.908C371.419 178.839 371.678 178.625 371.806 178.333L399.318 115.557C399.624 114.858 399.067 114.088 398.308 114.16Z" fill="#634F69" fill-opacity="0.45"/>
<path d="M398.308 114.16L269.086 126.35C268.352 126.42 267.943 127.232 268.324 127.863L307.337 192.385C307.559 192.753 307.991 192.937 308.41 192.844L371.107 178.908C371.419 178.839 371.678 178.625 371.806 178.333L399.318 115.557C399.624 114.858 399.067 114.088 398.308 114.16Z" fill="url(#paint8_linear_102_3)" fill-opacity="0.7" style="mix-blend-mode:overlay"/>
<path d="M269.133 126.848L398.355 114.657C398.735 114.622 399.013 115.007 398.86 115.356L371.348 178.132C371.284 178.278 371.155 178.385 370.999 178.42L308.301 192.356C308.092 192.403 307.876 192.31 307.765 192.127L268.752 127.605C268.561 127.289 268.766 126.883 269.133 126.848Z" stroke="#F5C0C0"/>
</g>
<g filter="url(#filter9_ddd_102_3)">
<path d="M332.798 121.608L268.563 127.36C267.835 127.425 267.285 126.712 267.534 126.024L304.445 23.9197C304.775 23.0062 306.082 23.0524 306.347 23.9869L333.671 120.339C333.842 120.942 333.422 121.552 332.798 121.608Z" fill="#634F69" fill-opacity="0.45"/>
<path d="M332.798 121.608L268.563 127.36C267.835 127.425 267.285 126.712 267.534 126.024L304.445 23.9197C304.775 23.0062 306.082 23.0524 306.347 23.9869L333.671 120.339C333.842 120.942 333.422 121.552 332.798 121.608Z" fill="url(#paint9_linear_102_3)" fill-opacity="0.7" style="mix-blend-mode:overlay"/>
<path d="M332.753 121.11L268.519 126.862C268.154 126.895 267.879 126.538 268.004 126.194L304.915 24.0897C305.08 23.633 305.733 23.656 305.866 24.1233L333.19 120.475C333.275 120.777 333.065 121.082 332.753 121.11Z" stroke="#F5C0C0"/>
</g>
<g filter="url(#filter10_ddd_102_3)">
<path d="M397.763 115.182L333.694 121.912C333.209 121.963 332.758 121.656 332.627 121.187L305.699 24.9985C305.453 24.1173 306.421 23.3951 307.195 23.8828L353.899 53.2994C354.004 53.3659 354.096 53.4515 354.17 53.5519L398.463 113.594C398.922 114.216 398.532 115.102 397.763 115.182Z" fill="#634F69" fill-opacity="0.45"/>
<path d="M397.763 115.182L333.694 121.912C333.209 121.963 332.758 121.656 332.627 121.187L305.699 24.9985C305.453 24.1173 306.421 23.3951 307.195 23.8828L353.899 53.2994C354.004 53.3659 354.096 53.4515 354.17 53.5519L398.463 113.594C398.922 114.216 398.532 115.102 397.763 115.182Z" fill="url(#paint10_linear_102_3)" fill-opacity="0.7" style="mix-blend-mode:overlay"/>
<path d="M397.711 114.685L333.642 121.415C333.399 121.44 333.174 121.287 333.108 121.052L306.181 24.8637C306.058 24.4231 306.542 24.062 306.929 24.3059L353.632 53.7225C353.685 53.7557 353.731 53.7985 353.768 53.8487L398.061 113.891C398.29 114.202 398.095 114.645 397.711 114.685Z" stroke="#F5C0C0" stroke-linejoin="round"/>
</g>
<g filter="url(#filter11_ddd_102_3)">
<path d="M187.024 239.985L108.808 308.539C108.038 309.214 106.872 308.434 107.202 307.465L122.845 261.456C122.943 261.168 123.167 260.94 123.453 260.837L186.026 238.292C187.065 237.918 187.855 239.257 187.024 239.985Z" fill="#634F69" fill-opacity="0.45"/>
<path d="M187.024 239.985L108.808 308.539C108.038 309.214 106.872 308.434 107.202 307.465L122.845 261.456C122.943 261.168 123.167 260.94 123.453 260.837L186.026 238.292C187.065 237.918 187.855 239.257 187.024 239.985Z" fill="url(#paint11_linear_102_3)" fill-opacity="0.7" style="mix-blend-mode:overlay"/>
<path d="M186.694 239.609L108.478 308.163C108.093 308.5 107.511 308.11 107.675 307.626L123.318 261.617C123.367 261.473 123.479 261.359 123.622 261.307L186.195 238.763C186.715 238.575 187.11 239.245 186.694 239.609Z" stroke="#F5C0C0"/>
</g>
<g filter="url(#filter12_ddd_102_3)">
<path d="M55 206.962V250.494C55 250.987 55.3589 251.406 55.8458 251.482L122.975 261.961C123.141 261.986 123.311 261.97 123.469 261.913L186.511 239.176C186.818 239.066 187.051 238.813 187.137 238.499L194.812 210.327C194.925 209.914 194.762 209.476 194.409 209.236L167.848 191.214C167.644 191.076 167.397 191.018 167.153 191.051L55.8671 205.971C55.3706 206.038 55 206.461 55 206.962Z" fill="#634F69" fill-opacity="0.45"/>
<path d="M55 206.962V250.494C55 250.987 55.3589 251.406 55.8458 251.482L122.975 261.961C123.141 261.986 123.311 261.97 123.469 261.913L186.511 239.176C186.818 239.066 187.051 238.813 187.137 238.499L194.812 210.327C194.925 209.914 194.762 209.476 194.409 209.236L167.848 191.214C167.644 191.076 167.397 191.018 167.153 191.051L55.8671 205.971C55.3706 206.038 55 206.461 55 206.962Z" fill="url(#paint12_linear_102_3)" fill-opacity="0.7" style="mix-blend-mode:overlay"/>
<path d="M55.5 250.494V206.962C55.5 206.712 55.6853 206.5 55.9336 206.467L167.22 191.546C167.342 191.53 167.465 191.559 167.567 191.628L194.128 209.65C194.305 209.77 194.386 209.989 194.33 210.195L186.654 238.367C186.611 238.524 186.495 238.651 186.341 238.706L123.299 261.443C123.22 261.471 123.135 261.479 123.052 261.467L55.9229 250.988C55.6795 250.95 55.5 250.74 55.5 250.494Z" stroke="#F5C0C0"/>
</g>
<circle cx="179" cy="9" r="2" fill="#F5C0C0"/>
<circle cx="333" cy="121" r="2" fill="#F5C0C0"/>
<circle cx="195" cy="210" r="2" fill="#F5C0C0"/>
<circle cx="166" cy="111" r="2" fill="#F5C0C0"/>
<circle cx="168" cy="191" r="2" fill="#F5C0C0"/>
<circle cx="123" cy="262" r="2" fill="#F5C0C0"/>
<circle cx="186" cy="239" r="2" fill="#F5C0C0"/>
<circle cx="308" cy="193" r="2" fill="#F5C0C0"/>
<circle cx="398" cy="115" r="2" fill="#F5C0C0"/>
<circle cx="268" cy="126" r="2" fill="#F5C0C0"/>
<circle cx="305" cy="24" r="2" fill="#F5C0C0"/>
<circle cx="104" cy="35" r="2" fill="#F5C0C0"/>
<circle cx="26" cy="107" r="2" fill="#F5C0C0"/>
<circle cx="55" cy="207" r="2" fill="#F5C0C0"/>
<defs>
<filter id="filter0_ddd_102_3" x="0.0420532" y="98.4832" width="104.363" height="123.19" filterUnits="userSpaceOnUse" color-interpolation-filters="sRGB">
<feFlood flood-opacity="0" result="BackgroundImageFix"/>
<feColorMatrix in="SourceAlpha" type="matrix" values="0 0 0 0 0 0 0 0 0 0 0 0 0 0 0 0 0 0 127 0" result="hardAlpha"/>
<feOffset dy="1"/>
<feGaussianBlur stdDeviation="2"/>
<feColorMatrix type="matrix" values="0 0 0 0 0 0 0 0 0 0 0 0 0 0 0 0 0 0 0.1 0"/>
<feBlend mode="normal" in2="BackgroundImageFix" result="effect1_dropShadow_102_3"/>
<feColorMatrix in="SourceAlpha" type="matrix" values="0 0 0 0 0 0 0 0 0 0 0 0 0 0 0 0 0 0 127 0" result="hardAlpha"/>
<feOffset dy="8"/>
<feGaussianBlur stdDeviation="8"/>
<feColorMatrix type="matrix" values="0 0 0 0 0 0 0 0 0 0 0 0 0 0 0 0 0 0 0.05 0"/>
<feBlend mode="normal" in2="effect1_dropShadow_102_3" result="effect2_dropShadow_102_3"/>
<feColorMatrix in="SourceAlpha" type="matrix" values="0 0 0 0 0 0 0 0 0 0 0 0 0 0 0 0 0 0 127 0" result="hardAlpha"/>
<feMorphology radius="1" operator="dilate" in="SourceAlpha" result="effect3_dropShadow_102_3"/>
<feOffset/>
<feColorMatrix type="matrix" values="0 0 0 0 0 0 0 0 0 0 0 0 0 0 0 0 0 0 0.03 0"/>
<feBlend mode="normal" in2="effect2_dropShadow_102_3" result="effect3_dropShadow_102_3"/>
<feBlend mode="normal" in="SourceGraphic" in2="effect3_dropShadow_102_3" result="shape"/>
</filter>
<filter id="filter1_ddd_102_3" x="20.6299" y="102.9" width="163.348" height="128.069" filterUnits="userSpaceOnUse" color-interpolation-filters="sRGB">
<feFlood flood-opacity="0" result="BackgroundImageFix"/>
<feColorMatrix in="SourceAlpha" type="matrix" values="0 0 0 0 0 0 0 0 0 0 0 0 0 0 0 0 0 0 127 0" result="hardAlpha"/>
<feOffset dy="1"/>
<feGaussianBlur stdDeviation="2"/>
<feColorMatrix type="matrix" values="0 0 0 0 0 0 0 0 0 0 0 0 0 0 0 0 0 0 0.1 0"/>
<feBlend mode="normal" in2="BackgroundImageFix" result="effect1_dropShadow_102_3"/>
<feColorMatrix in="SourceAlpha" type="matrix" values="0 0 0 0 0 0 0 0 0 0 0 0 0 0 0 0 0 0 127 0" result="hardAlpha"/>
<feOffset dy="8"/>
<feGaussianBlur stdDeviation="8"/>
<feColorMatrix type="matrix" values="0 0 0 0 0 0 0 0 0 0 0 0 0 0 0 0 0 0 0.05 0"/>
<feBlend mode="normal" in2="effect1_dropShadow_102_3" result="effect2_dropShadow_102_3"/>
<feColorMatrix in="SourceAlpha" type="matrix" values="0 0 0 0 0 0 0 0 0 0 0 0 0 0 0 0 0 0 127 0" result="hardAlpha"/>
<feMorphology radius="1" operator="dilate" in="SourceAlpha" result="effect3_dropShadow_102_3"/>
<feOffset/>
<feColorMatrix type="matrix" values="0 0 0 0 0 0 0 0 0 0 0 0 0 0 0 0 0 0 0.03 0"/>
<feBlend mode="normal" in2="effect2_dropShadow_102_3" result="effect3_dropShadow_102_3"/>
<feBlend mode="normal" in="SourceGraphic" in2="effect3_dropShadow_102_3" result="shape"/>
</filter>
<filter id="filter2_ddd_102_3" x="9.24786" y="26.4578" width="172.578" height="135.961" filterUnits="userSpaceOnUse" color-interpolation-filters="sRGB">
<feFlood flood-opacity="0" result="BackgroundImageFix"/>
<feColorMatrix in="SourceAlpha" type="matrix" values="0 0 0 0 0 0 0 0 0 0 0 0 0 0 0 0 0 0 127 0" result="hardAlpha"/>
<feOffset dy="1"/>
<feGaussianBlur stdDeviation="2"/>
<feColorMatrix type="matrix" values="0 0 0 0 0 0 0 0 0 0 0 0 0 0 0 0 0 0 0.1 0"/>
<feBlend mode="normal" in2="BackgroundImageFix" result="effect1_dropShadow_102_3"/>
<feColorMatrix in="SourceAlpha" type="matrix" values="0 0 0 0 0 0 0 0 0 0 0 0 0 0 0 0 0 0 127 0" result="hardAlpha"/>
<feOffset dy="8"/>
<feGaussianBlur stdDeviation="8"/>
<feColorMatrix type="matrix" values="0 0 0 0 0 0 0 0 0 0 0 0 0 0 0 0 0 0 0.05 0"/>
<feBlend mode="normal" in2="effect1_dropShadow_102_3" result="effect2_dropShadow_102_3"/>
<feColorMatrix in="SourceAlpha" type="matrix" values="0 0 0 0 0 0 0 0 0 0 0 0 0 0 0 0 0 0 127 0" result="hardAlpha"/>
<feMorphology radius="1" operator="dilate" in="SourceAlpha" result="effect3_dropShadow_102_3"/>
<feOffset/>
<feColorMatrix type="matrix" values="0 0 0 0 0 0 0 0 0 0 0 0 0 0 0 0 0 0 0.03 0"/>
<feBlend mode="normal" in2="effect2_dropShadow_102_3" result="effect3_dropShadow_102_3"/>
<feBlend mode="normal" in="SourceGraphic" in2="effect3_dropShadow_102_3" result="shape"/>
</filter>
<filter id="filter3_ddd_102_3" x="163.187" y="0" width="158.446" height="150.425" filterUnits="userSpaceOnUse" color-interpolation-filters="sRGB">
<feFlood flood-opacity="0" result="BackgroundImageFix"/>
<feColorMatrix in="SourceAlpha" type="matrix" values="0 0 0 0 0 0 0 0 0 0 0 0 0 0 0 0 0 0 127 0" result="hardAlpha"/>
<feOffset dy="1"/>
<feGaussianBlur stdDeviation="2"/>
<feColorMatrix type="matrix" values="0 0 0 0 0 0 0 0 0 0 0 0 0 0 0 0 0 0 0.1 0"/>
<feBlend mode="normal" in2="BackgroundImageFix" result="effect1_dropShadow_102_3"/>
<feColorMatrix in="SourceAlpha" type="matrix" values="0 0 0 0 0 0 0 0 0 0 0 0 0 0 0 0 0 0 127 0" result="hardAlpha"/>
<feOffset dy="8"/>
<feGaussianBlur stdDeviation="8"/>
<feColorMatrix type="matrix" values="0 0 0 0 0 0 0 0 0 0 0 0 0 0 0 0 0 0 0.05 0"/>
<feBlend mode="normal" in2="effect1_dropShadow_102_3" result="effect2_dropShadow_102_3"/>
<feColorMatrix in="SourceAlpha" type="matrix" values="0 0 0 0 0 0 0 0 0 0 0 0 0 0 0 0 0 0 127 0" result="hardAlpha"/>
<feMorphology radius="1" operator="dilate" in="SourceAlpha" result="effect3_dropShadow_102_3"/>
<feOffset/>
<feColorMatrix type="matrix" values="0 0 0 0 0 0 0 0 0 0 0 0 0 0 0 0 0 0 0.03 0"/>
<feBlend mode="normal" in2="effect2_dropShadow_102_3" result="effect3_dropShadow_102_3"/>
<feBlend mode="normal" in="SourceGraphic" in2="effect3_dropShadow_102_3" result="shape"/>
</filter>
<filter id="filter4_ddd_102_3" x="150.108" y="0.595703" width="133.137" height="150.062" filterUnits="userSpaceOnUse" color-interpolation-filters="sRGB">
<feFlood flood-opacity="0" result="BackgroundImageFix"/>
<feColorMatrix in="SourceAlpha" type="matrix" values="0 0 0 0 0 0 0 0 0 0 0 0 0 0 0 0 0 0 127 0" result="hardAlpha"/>
<feOffset dy="1"/>
<feGaussianBlur stdDeviation="2"/>
<feColorMatrix type="matrix" values="0 0 0 0 0 0 0 0 0 0 0 0 0 0 0 0 0 0 0.1 0"/>
<feBlend mode="normal" in2="BackgroundImageFix" result="effect1_dropShadow_102_3"/>
<feColorMatrix in="SourceAlpha" type="matrix" values="0 0 0 0 0 0 0 0 0 0 0 0 0 0 0 0 0 0 127 0" result="hardAlpha"/>
<feOffset dy="8"/>
<feGaussianBlur stdDeviation="8"/>
<feColorMatrix type="matrix" values="0 0 0 0 0 0 0 0 0 0 0 0 0 0 0 0 0 0 0.05 0"/>
<feBlend mode="normal" in2="effect1_dropShadow_102_3" result="effect2_dropShadow_102_3"/>
<feColorMatrix in="SourceAlpha" type="matrix" values="0 0 0 0 0 0 0 0 0 0 0 0 0 0 0 0 0 0 127 0" result="hardAlpha"/>
<feMorphology radius="1" operator="dilate" in="SourceAlpha" result="effect3_dropShadow_102_3"/>
<feOffset/>
<feColorMatrix type="matrix" values="0 0 0 0 0 0 0 0 0 0 0 0 0 0 0 0 0 0 0.03 0"/>
<feBlend mode="normal" in2="effect2_dropShadow_102_3" result="effect3_dropShadow_102_3"/>
<feBlend mode="normal" in="SourceGraphic" in2="effect3_dropShadow_102_3" result="shape"/>
</filter>
<filter id="filter5_ddd_102_3" x="149.029" y="102.664" width="135.009" height="131.023" filterUnits="userSpaceOnUse" color-interpolation-filters="sRGB">
<feFlood flood-opacity="0" result="BackgroundImageFix"/>
<feColorMatrix in="SourceAlpha" type="matrix" values="0 0 0 0 0 0 0 0 0 0 0 0 0 0 0 0 0 0 127 0" result="hardAlpha"/>
<feOffset dy="1"/>
<feGaussianBlur stdDeviation="2"/>
<feColorMatrix type="matrix" values="0 0 0 0 0 0 0 0 0 0 0 0 0 0 0 0 0 0 0.1 0"/>
<feBlend mode="normal" in2="BackgroundImageFix" result="effect1_dropShadow_102_3"/>
<feColorMatrix in="SourceAlpha" type="matrix" values="0 0 0 0 0 0 0 0 0 0 0 0 0 0 0 0 0 0 127 0" result="hardAlpha"/>
<feOffset dy="8"/>
<feGaussianBlur stdDeviation="8"/>
<feColorMatrix type="matrix" values="0 0 0 0 0 0 0 0 0 0 0 0 0 0 0 0 0 0 0.05 0"/>
<feBlend mode="normal" in2="effect1_dropShadow_102_3" result="effect2_dropShadow_102_3"/>
<feColorMatrix in="SourceAlpha" type="matrix" values="0 0 0 0 0 0 0 0 0 0 0 0 0 0 0 0 0 0 127 0" result="hardAlpha"/>
<feMorphology radius="1" operator="dilate" in="SourceAlpha" result="effect3_dropShadow_102_3"/>
<feOffset/>
<feColorMatrix type="matrix" values="0 0 0 0 0 0 0 0 0 0 0 0 0 0 0 0 0 0 0.03 0"/>
<feBlend mode="normal" in2="effect2_dropShadow_102_3" result="effect3_dropShadow_102_3"/>
<feBlend mode="normal" in="SourceGraphic" in2="effect3_dropShadow_102_3" result="shape"/>
</filter>
<filter id="filter6_ddd_102_3" x="88.1644" y="0.483398" width="107.144" height="135.056" filterUnits="userSpaceOnUse" color-interpolation-filters="sRGB">
<feFlood flood-opacity="0" result="BackgroundImageFix"/>
<feColorMatrix in="SourceAlpha" type="matrix" values="0 0 0 0 0 0 0 0 0 0 0 0 0 0 0 0 0 0 127 0" result="hardAlpha"/>
<feOffset dy="1"/>
<feGaussianBlur stdDeviation="2"/>
<feColorMatrix type="matrix" values="0 0 0 0 0 0 0 0 0 0 0 0 0 0 0 0 0 0 0.1 0"/>
<feBlend mode="normal" in2="BackgroundImageFix" result="effect1_dropShadow_102_3"/>
<feColorMatrix in="SourceAlpha" type="matrix" values="0 0 0 0 0 0 0 0 0 0 0 0 0 0 0 0 0 0 127 0" result="hardAlpha"/>
<feOffset dy="8"/>
<feGaussianBlur stdDeviation="8"/>
<feColorMatrix type="matrix" values="0 0 0 0 0 0 0 0 0 0 0 0 0 0 0 0 0 0 0.05 0"/>
<feBlend mode="normal" in2="effect1_dropShadow_102_3" result="effect2_dropShadow_102_3"/>
<feColorMatrix in="SourceAlpha" type="matrix" values="0 0 0 0 0 0 0 0 0 0 0 0 0 0 0 0 0 0 127 0" result="hardAlpha"/>
<feMorphology radius="1" operator="dilate" in="SourceAlpha" result="effect3_dropShadow_102_3"/>
<feOffset/>
<feColorMatrix type="matrix" values="0 0 0 0 0 0 0 0 0 0 0 0 0 0 0 0 0 0 0.03 0"/>
<feBlend mode="normal" in2="effect2_dropShadow_102_3" result="effect3_dropShadow_102_3"/>
<feBlend mode="normal" in="SourceGraphic" in2="effect3_dropShadow_102_3" result="shape"/>
</filter>
<filter id="filter7_ddd_102_3" x="178.088" y="118.684" width="145.683" height="143.219" filterUnits="userSpaceOnUse" color-interpolation-filters="sRGB">
<feFlood flood-opacity="0" result="BackgroundImageFix"/>
<feColorMatrix in="SourceAlpha" type="matrix" values="0 0 0 0 0 0 0 0 0 0 0 0 0 0 0 0 0 0 127 0" result="hardAlpha"/>
<feOffset dy="1"/>
<feGaussianBlur stdDeviation="2"/>
<feColorMatrix type="matrix" values="0 0 0 0 0 0 0 0 0 0 0 0 0 0 0 0 0 0 0.1 0"/>
<feBlend mode="normal" in2="BackgroundImageFix" result="effect1_dropShadow_102_3"/>
<feColorMatrix in="SourceAlpha" type="matrix" values="0 0 0 0 0 0 0 0 0 0 0 0 0 0 0 0 0 0 127 0" result="hardAlpha"/>
<feOffset dy="8"/>
<feGaussianBlur stdDeviation="8"/>
<feColorMatrix type="matrix" values="0 0 0 0 0 0 0 0 0 0 0 0 0 0 0 0 0 0 0.05 0"/>
<feBlend mode="normal" in2="effect1_dropShadow_102_3" result="effect2_dropShadow_102_3"/>
<feColorMatrix in="SourceAlpha" type="matrix" values="0 0 0 0 0 0 0 0 0 0 0 0 0 0 0 0 0 0 127 0" result="hardAlpha"/>
<feMorphology radius="1" operator="dilate" in="SourceAlpha" result="effect3_dropShadow_102_3"/>
<feOffset/>
<feColorMatrix type="matrix" values="0 0 0 0 0 0 0 0 0 0 0 0 0 0 0 0 0 0 0.03 0"/>
<feBlend mode="normal" in2="effect2_dropShadow_102_3" result="effect3_dropShadow_102_3"/>
<feBlend mode="normal" in="SourceGraphic" in2="effect3_dropShadow_102_3" result="shape"/>
</filter>
<filter id="filter8_ddd_102_3" x="252.179" y="106.155" width="163.224" height="110.713" filterUnits="userSpaceOnUse" color-interpolation-filters="sRGB">
<feFlood flood-opacity="0" result="BackgroundImageFix"/>
<feColorMatrix in="SourceAlpha" type="matrix" values="0 0 0 0 0 0 0 0 0 0 0 0 0 0 0 0 0 0 127 0" result="hardAlpha"/>
<feOffset dy="1"/>
<feGaussianBlur stdDeviation="2"/>
<feColorMatrix type="matrix" values="0 0 0 0 0 0 0 0 0 0 0 0 0 0 0 0 0 0 0.1 0"/>
<feBlend mode="normal" in2="BackgroundImageFix" result="effect1_dropShadow_102_3"/>
<feColorMatrix in="SourceAlpha" type="matrix" values="0 0 0 0 0 0 0 0 0 0 0 0 0 0 0 0 0 0 127 0" result="hardAlpha"/>
<feOffset dy="8"/>
<feGaussianBlur stdDeviation="8"/>
<feColorMatrix type="matrix" values="0 0 0 0 0 0 0 0 0 0 0 0 0 0 0 0 0 0 0.05 0"/>
<feBlend mode="normal" in2="effect1_dropShadow_102_3" result="effect2_dropShadow_102_3"/>
<feColorMatrix in="SourceAlpha" type="matrix" values="0 0 0 0 0 0 0 0 0 0 0 0 0 0 0 0 0 0 127 0" result="hardAlpha"/>
<feMorphology radius="1" operator="dilate" in="SourceAlpha" result="effect3_dropShadow_102_3"/>
<feOffset/>
<feColorMatrix type="matrix" values="0 0 0 0 0 0 0 0 0 0 0 0 0 0 0 0 0 0 0.03 0"/>
<feBlend mode="normal" in2="effect2_dropShadow_102_3" result="effect3_dropShadow_102_3"/>
<feBlend mode="normal" in="SourceGraphic" in2="effect3_dropShadow_102_3" result="shape"/>
</filter>
<filter id="filter9_ddd_102_3" x="251.473" y="15.2598" width="98.2362" height="136.104" filterUnits="userSpaceOnUse" color-interpolation-filters="sRGB">
<feFlood flood-opacity="0" result="BackgroundImageFix"/>
<feColorMatrix in="SourceAlpha" type="matrix" values="0 0 0 0 0 0 0 0 0 0 0 0 0 0 0 0 0 0 127 0" result="hardAlpha"/>
<feOffset dy="1"/>
<feGaussianBlur stdDeviation="2"/>
<feColorMatrix type="matrix" values="0 0 0 0 0 0 0 0 0 0 0 0 0 0 0 0 0 0 0.1 0"/>
<feBlend mode="normal" in2="BackgroundImageFix" result="effect1_dropShadow_102_3"/>
<feColorMatrix in="SourceAlpha" type="matrix" values="0 0 0 0 0 0 0 0 0 0 0 0 0 0 0 0 0 0 127 0" result="hardAlpha"/>
<feOffset dy="8"/>
<feGaussianBlur stdDeviation="8"/>
<feColorMatrix type="matrix" values="0 0 0 0 0 0 0 0 0 0 0 0 0 0 0 0 0 0 0.05 0"/>
<feBlend mode="normal" in2="effect1_dropShadow_102_3" result="effect2_dropShadow_102_3"/>
<feColorMatrix in="SourceAlpha" type="matrix" values="0 0 0 0 0 0 0 0 0 0 0 0 0 0 0 0 0 0 127 0" result="hardAlpha"/>
<feMorphology radius="1" operator="dilate" in="SourceAlpha" result="effect3_dropShadow_102_3"/>
<feOffset/>
<feColorMatrix type="matrix" values="0 0 0 0 0 0 0 0 0 0 0 0 0 0 0 0 0 0 0.03 0"/>
<feBlend mode="normal" in2="effect2_dropShadow_102_3" result="effect3_dropShadow_102_3"/>
<feBlend mode="normal" in="SourceGraphic" in2="effect3_dropShadow_102_3" result="shape"/>
</filter>
<filter id="filter10_ddd_102_3" x="289.66" y="15.7253" width="124.999" height="130.192" filterUnits="userSpaceOnUse" color-interpolation-filters="sRGB">
<feFlood flood-opacity="0" result="BackgroundImageFix"/>
<feColorMatrix in="SourceAlpha" type="matrix" values="0 0 0 0 0 0 0 0 0 0 0 0 0 0 0 0 0 0 127 0" result="hardAlpha"/>
<feOffset dy="1"/>
<feGaussianBlur stdDeviation="2"/>
<feColorMatrix type="matrix" values="0 0 0 0 0 0 0 0 0 0 0 0 0 0 0 0 0 0 0.1 0"/>
<feBlend mode="normal" in2="BackgroundImageFix" result="effect1_dropShadow_102_3"/>
<feColorMatrix in="SourceAlpha" type="matrix" values="0 0 0 0 0 0 0 0 0 0 0 0 0 0 0 0 0 0 127 0" result="hardAlpha"/>
<feOffset dy="8"/>
<feGaussianBlur stdDeviation="8"/>
<feColorMatrix type="matrix" values="0 0 0 0 0 0 0 0 0 0 0 0 0 0 0 0 0 0 0.05 0"/>
<feBlend mode="normal" in2="effect1_dropShadow_102_3" result="effect2_dropShadow_102_3"/>
<feColorMatrix in="SourceAlpha" type="matrix" values="0 0 0 0 0 0 0 0 0 0 0 0 0 0 0 0 0 0 127 0" result="hardAlpha"/>
<feMorphology radius="1" operator="dilate" in="SourceAlpha" result="effect3_dropShadow_102_3"/>
<feOffset/>
<feColorMatrix type="matrix" values="0 0 0 0 0 0 0 0 0 0 0 0 0 0 0 0 0 0 0.03 0"/>
<feBlend mode="normal" in2="effect2_dropShadow_102_3" result="effect3_dropShadow_102_3"/>
<feBlend mode="normal" in="SourceGraphic" in2="effect3_dropShadow_102_3" result="shape"/>
</filter>
<filter id="filter11_ddd_102_3" x="91.1446" y="230.227" width="112.227" height="102.565" filterUnits="userSpaceOnUse" color-interpolation-filters="sRGB">
<feFlood flood-opacity="0" result="BackgroundImageFix"/>
<feColorMatrix in="SourceAlpha" type="matrix" values="0 0 0 0 0 0 0 0 0 0 0 0 0 0 0 0 0 0 127 0" result="hardAlpha"/>
<feOffset dy="1"/>
<feGaussianBlur stdDeviation="2"/>
<feColorMatrix type="matrix" values="0 0 0 0 0 0 0 0 0 0 0 0 0 0 0 0 0 0 0.1 0"/>
<feBlend mode="normal" in2="BackgroundImageFix" result="effect1_dropShadow_102_3"/>
<feColorMatrix in="SourceAlpha" type="matrix" values="0 0 0 0 0 0 0 0 0 0 0 0 0 0 0 0 0 0 127 0" result="hardAlpha"/>
<feOffset dy="8"/>
<feGaussianBlur stdDeviation="8"/>
<feColorMatrix type="matrix" values="0 0 0 0 0 0 0 0 0 0 0 0 0 0 0 0 0 0 0.05 0"/>
<feBlend mode="normal" in2="effect1_dropShadow_102_3" result="effect2_dropShadow_102_3"/>
<feColorMatrix in="SourceAlpha" type="matrix" values="0 0 0 0 0 0 0 0 0 0 0 0 0 0 0 0 0 0 127 0" result="hardAlpha"/>
<feMorphology radius="1" operator="dilate" in="SourceAlpha" result="effect3_dropShadow_102_3"/>
<feOffset/>
<feColorMatrix type="matrix" values="0 0 0 0 0 0 0 0 0 0 0 0 0 0 0 0 0 0 0.03 0"/>
<feBlend mode="normal" in2="effect2_dropShadow_102_3" result="effect3_dropShadow_102_3"/>
<feBlend mode="normal" in="SourceGraphic" in2="effect3_dropShadow_102_3" result="shape"/>
</filter>
<filter id="filter12_ddd_102_3" x="39" y="183.042" width="171.847" height="102.931" filterUnits="userSpaceOnUse" color-interpolation-filters="sRGB">
<feFlood flood-opacity="0" result="BackgroundImageFix"/>
<feColorMatrix in="SourceAlpha" type="matrix" values="0 0 0 0 0 0 0 0 0 0 0 0 0 0 0 0 0 0 127 0" result="hardAlpha"/>
<feOffset dy="1"/>
<feGaussianBlur stdDeviation="2"/>
<feColorMatrix type="matrix" values="0 0 0 0 0 0 0 0 0 0 0 0 0 0 0 0 0 0 0.1 0"/>
<feBlend mode="normal" in2="BackgroundImageFix" result="effect1_dropShadow_102_3"/>
<feColorMatrix in="SourceAlpha" type="matrix" values="0 0 0 0 0 0 0 0 0 0 0 0 0 0 0 0 0 0 127 0" result="hardAlpha"/>
<feOffset dy="8"/>
<feGaussianBlur stdDeviation="8"/>
<feColorMatrix type="matrix" values="0 0 0 0 0 0 0 0 0 0 0 0 0 0 0 0 0 0 0.05 0"/>
<feBlend mode="normal" in2="effect1_dropShadow_102_3" result="effect2_dropShadow_102_3"/>
<feColorMatrix in="SourceAlpha" type="matrix" values="0 0 0 0 0 0 0 0 0 0 0 0 0 0 0 0 0 0 127 0" result="hardAlpha"/>
<feMorphology radius="1" operator="dilate" in="SourceAlpha" result="effect3_dropShadow_102_3"/>
<feOffset/>
<feColorMatrix type="matrix" values="0 0 0 0 0 0 0 0 0 0 0 0 0 0 0 0 0 0 0.03 0"/>
<feBlend mode="normal" in2="effect2_dropShadow_102_3" result="effect3_dropShadow_102_3"/>
<feBlend mode="normal" in="SourceGraphic" in2="effect3_dropShadow_102_3" result="shape"/>
</filter>
<linearGradient id="paint0_linear_102_3" x1="52.5" y1="95.6448" x2="52.5" y2="203.59" gradientUnits="userSpaceOnUse">
<stop stop-color="#F5C0C0" stop-opacity="0.37"/>
<stop offset="1" stop-color="#F5C0C0" stop-opacity="0.14"/>
</linearGradient>
<linearGradient id="paint1_linear_102_3" x1="102" y1="103.531" x2="102" y2="212.662" gradientUnits="userSpaceOnUse">
<stop stop-color="#F5C0C0" stop-opacity="0.37"/>
<stop offset="1" stop-color="#F5C0C0" stop-opacity="0.14"/>
</linearGradient>
<linearGradient id="paint2_linear_102_3" x1="95" y1="22.2793" x2="95" y2="144.459" gradientUnits="userSpaceOnUse">
<stop stop-color="#F5C0C0" stop-opacity="0.37"/>
<stop offset="1" stop-color="#F5C0C0" stop-opacity="0.14"/>
</linearGradient>
<linearGradient id="paint3_linear_102_3" x1="242.5" y1="-5.54138" x2="242.5" y2="135.617" gradientUnits="userSpaceOnUse">
<stop stop-color="#F5C0C0" stop-opacity="0.37"/>
<stop offset="1" stop-color="#F5C0C0" stop-opacity="0.14"/>
</linearGradient>
<linearGradient id="paint4_linear_102_3" x1="217" y1="-5.54138" x2="217" y2="135.617" gradientUnits="userSpaceOnUse">
<stop stop-color="#F5C0C0" stop-opacity="0.37"/>
<stop offset="1" stop-color="#F5C0C0" stop-opacity="0.14"/>
</linearGradient>
<linearGradient id="paint5_linear_102_3" x1="216" y1="101.962" x2="216" y2="217.024" gradientUnits="userSpaceOnUse">
<stop stop-color="#F5C0C0" stop-opacity="0.37"/>
<stop offset="1" stop-color="#F5C0C0" stop-opacity="0.14"/>
</linearGradient>
<linearGradient id="paint6_linear_102_3" x1="141.5" y1="-3.83448" x2="141.5" y2="119.531" gradientUnits="userSpaceOnUse">
<stop stop-color="#F5C0C0" stop-opacity="0.37"/>
<stop offset="1" stop-color="#F5C0C0" stop-opacity="0.14"/>
</linearGradient>
<linearGradient id="paint7_linear_102_3" x1="252" y1="114.369" x2="252" y2="246.038" gradientUnits="userSpaceOnUse">
<stop stop-color="#F5C0C0" stop-opacity="0.37"/>
<stop offset="1" stop-color="#F5C0C0" stop-opacity="0.14"/>
</linearGradient>
<linearGradient id="paint8_linear_102_3" x1="333" y1="105.01" x2="333" y2="198.721" gradientUnits="userSpaceOnUse">
<stop stop-color="#F5C0C0" stop-opacity="0.37"/>
<stop offset="1" stop-color="#F5C0C0" stop-opacity="0.14"/>
</linearGradient>
<linearGradient id="paint9_linear_102_3" x1="299.5" y1="13.3931" x2="299.5" y2="134.386" gradientUnits="userSpaceOnUse">
<stop stop-color="#F5C0C0" stop-opacity="0.37"/>
<stop offset="1" stop-color="#F5C0C0" stop-opacity="0.14"/>
</linearGradient>
<linearGradient id="paint10_linear_102_3" x1="354.5" y1="12.8483" x2="354.5" y2="129.096" gradientUnits="userSpaceOnUse">
<stop stop-color="#F5C0C0" stop-opacity="0.37"/>
<stop offset="1" stop-color="#F5C0C0" stop-opacity="0.14"/>
</linearGradient>
<linearGradient id="paint11_linear_102_3" x1="146.5" y1="229.693" x2="146.5" y2="316.286" gradientUnits="userSpaceOnUse">
<stop stop-color="#F5C0C0" stop-opacity="0.37"/>
<stop offset="1" stop-color="#F5C0C0" stop-opacity="0.14"/>
</linearGradient>
<linearGradient id="paint12_linear_102_3" x1="125" y1="182.921" x2="125" y2="267.141" gradientUnits="userSpaceOnUse">
<stop stop-color="#F5C0C0" stop-opacity="0.37"/>
<stop offset="1" stop-color="#F5C0C0" stop-opacity="0.14"/>
</linearGradient>
</defs>
</svg>
