<svg width="244" height="90" viewBox="0 0 244 90" fill="none" xmlns="http://www.w3.org/2000/svg">
<path d="M48 89.63V76.82H54.29C56.64 76.82 57.94 78.28 57.94 80.08C57.9713 80.7536 57.7652 81.4168 57.3577 81.9541C56.9502 82.4913 56.3671 82.8685 55.71 83.02C56.4248 83.1754 57.0633 83.5748 57.5158 84.1495C57.9683 84.7243 58.2067 85.4387 58.19 86.17C58.19 88.17 56.87 89.63 54.47 89.63H48ZM55.64 80.47C55.6455 80.2371 55.6013 80.0056 55.5104 79.791C55.4194 79.5765 55.2838 79.3838 55.1126 79.2258C54.9413 79.0678 54.7383 78.9481 54.5172 78.8747C54.296 78.8012 54.0618 78.7758 53.83 78.8H50.2V82.12H53.79C54.0207 82.1473 54.2545 82.1247 54.4757 82.0537C54.6969 81.9827 54.9002 81.865 55.0719 81.7085C55.2436 81.552 55.3796 81.3604 55.4707 81.1467C55.5618 80.933 55.6059 80.7022 55.6 80.47M55.85 85.86C55.8524 85.6072 55.8002 85.3569 55.6972 85.1261C55.5941 84.8952 55.4426 84.6893 55.2528 84.5223C55.063 84.3553 54.8395 84.2311 54.5974 84.1583C54.3553 84.0854 54.1004 84.0655 53.85 84.1H50.2V87.65H53.89C54.1439 87.6904 54.4035 87.6737 54.6502 87.6012C54.8968 87.5286 55.1241 87.402 55.3157 87.2306C55.5072 87.0592 55.6581 86.8472 55.7575 86.6101C55.8568 86.373 55.9021 86.1168 55.89 85.86" fill="white"/>
<path d="M66.1297 89.63V84.31L61.1597 76.82H63.7297L67.2597 82.31L70.7597 76.82H73.3297L68.3797 84.31V89.63H66.1297Z" fill="white"/>
<path d="M88.1198 76.82H84.8198V89.62H88.1198V76.82Z" fill="white"/>
<path d="M101.83 89.63L96.4099 82.22V89.63H93.1099V76.82H96.5099L101.69 83.87V76.82H105.02V89.63H101.83Z" fill="white"/>
<path d="M109.08 87.82L110.83 85.34C111.366 85.8783 112.003 86.3049 112.705 86.595C113.407 86.8851 114.16 87.033 114.92 87.03C116.05 87.03 116.74 86.59 116.74 86.03C116.74 84.28 109.48 85.68 109.48 80.75C109.48 78.6 111.31 76.68 114.59 76.68C116.482 76.6219 118.33 77.2546 119.79 78.46L118 80.78C116.937 79.9231 115.614 79.4539 114.25 79.45C113.25 79.45 112.87 79.83 112.87 80.37C112.87 82 120.11 80.82 120.11 85.58C120.11 88.15 118.21 89.86 114.77 89.86C113.738 89.918 112.704 89.7711 111.73 89.4279C110.755 89.0846 109.857 88.5518 109.09 87.86" fill="white"/>
<path d="M126.85 89.63V79.7H123.26V76.82H133.73V79.7H130.16V89.63H126.85Z" fill="white"/>
<path d="M145.13 89.63L142.98 85.33H141.29V89.63H138V76.82H144.41C144.991 76.7715 145.576 76.8468 146.125 77.041C146.675 77.2351 147.177 77.5437 147.599 77.9464C148.02 78.349 148.351 78.8365 148.571 79.3767C148.79 79.9169 148.892 80.4975 148.87 81.08C148.913 81.9089 148.688 82.7296 148.229 83.4211C147.77 84.1125 147.101 84.638 146.32 84.92L148.93 89.63H145.13ZM145.49 81.06C145.482 80.8639 145.433 80.6716 145.347 80.4951C145.261 80.3187 145.14 80.1617 144.991 80.0342C144.842 79.9066 144.668 79.8111 144.48 79.7536C144.293 79.6961 144.095 79.6778 143.9 79.7H141.29V82.45H143.9C144.098 82.4738 144.298 82.4559 144.489 82.3972C144.679 82.3385 144.855 82.2404 145.005 82.1093C145.155 81.9782 145.275 81.817 145.359 81.6363C145.443 81.4555 145.487 81.2591 145.49 81.06Z" fill="white"/>
<path d="M153.35 84.44V76.82H156.71V84.33C156.71 85.0461 156.994 85.7328 157.5 86.2392C158.007 86.7455 158.694 87.03 159.41 87.03C160.126 87.03 160.812 86.7455 161.319 86.2392C161.825 85.7328 162.11 85.0461 162.11 84.33V76.82H165.45V84.42C165.45 87.61 163.51 89.86 159.45 89.86C155.39 89.86 153.38 87.59 153.38 84.44" fill="white"/>
<path d="M169.78 83.23C169.78 79.23 172.78 76.61 176.71 76.61C177.877 76.5667 179.031 76.8704 180.026 77.4827C181.021 78.0949 181.812 78.9883 182.3 80.05L179.46 81.39C179.228 80.849 178.845 80.386 178.358 80.0562C177.87 79.7265 177.298 79.5438 176.71 79.53C175.76 79.5794 174.866 79.9912 174.212 80.6806C173.557 81.37 173.192 82.2844 173.192 83.235C173.192 84.1856 173.557 85.1 174.212 85.7894C174.866 86.4788 175.76 86.8907 176.71 86.94C177.298 86.9238 177.869 86.7402 178.356 86.4107C178.843 86.0812 179.226 85.6196 179.46 85.08L182.3 86.42C181.803 87.4744 181.01 88.3613 180.017 88.9722C179.024 89.5831 177.875 89.8916 176.71 89.86C172.78 89.86 169.78 87.17 169.78 83.23Z" fill="white"/>
<path d="M189.26 89.63V79.7H185.67V76.82H196.14V79.7H192.56V89.63H189.26Z" fill="white"/>
<path d="M200.39 84.44V76.82H203.75V84.33C203.75 85.0461 204.034 85.7328 204.54 86.2392C205.047 86.7455 205.734 87.03 206.45 87.03C207.166 87.03 207.852 86.7455 208.359 86.2392C208.865 85.7328 209.15 85.0461 209.15 84.33V76.82H212.49V84.42C212.49 87.61 210.55 89.86 206.49 89.86C202.43 89.86 200.42 87.59 200.42 84.44" fill="white"/>
<path d="M224.62 89.63L222.47 85.33H220.78V89.63H217.47V76.82H223.88C224.461 76.7715 225.045 76.8468 225.595 77.041C226.145 77.2351 226.647 77.5437 227.068 77.9464C227.49 78.349 227.821 78.8365 228.04 79.3767C228.26 79.9169 228.362 80.4975 228.34 81.08C228.383 81.9089 228.158 82.7296 227.699 83.4211C227.24 84.1125 226.57 84.638 225.79 84.92L228.4 89.63H224.62ZM224.98 81.06C224.971 80.8639 224.923 80.6716 224.837 80.4951C224.751 80.3187 224.63 80.1617 224.481 80.0342C224.331 79.9066 224.158 79.8111 223.97 79.7536C223.782 79.6961 223.585 79.6778 223.39 79.7H220.78V82.45H223.39C223.589 82.4769 223.792 82.4612 223.984 82.4039C224.177 82.3466 224.356 82.249 224.508 82.1176C224.66 81.9862 224.783 81.824 224.867 81.6416C224.952 81.4593 224.997 81.2611 225 81.06" fill="white"/>
<path d="M232.85 89.63V76.82H242.23V79.7H236.15V81.7H242.1V84.58H236.15V86.75H242.23V89.63H232.85Z" fill="white"/>
<path d="M29.6198 47.37C29.6198 56.25 23.8598 59.54 15.1498 59.54H14.9998C6.28979 59.54 0.529785 56.33 0.529785 47.37V12.83C0.529785 4.28 6.28979 0.660004 14.9998 0.660004H15.1698C23.8798 0.660004 29.6398 4.28 29.6398 12.83V19.65H20.0998V14.32C20.0998 10.32 18.0998 9.05 15.0998 9.05C12.0998 9.05 10.0998 10.29 10.0998 14.32V45.89C10.0998 49.89 12.0998 51.15 15.0998 51.15C18.0998 51.15 20.0998 49.92 20.0998 45.89V39.16H29.6398L29.6198 47.37Z" fill="white"/>
<path d="M63.4199 46.06H52.8999L50.8399 58.88H41.6299L52.3199 1.32001H64.3199L75.1699 58.88H65.4699L63.4199 46.06ZM62.1899 38.16L58.1899 12.59L54.1899 38.16H62.1899Z" fill="white"/>
<path d="M88.1797 58.88V1.32001H97.7197L109.81 36.93V1.32001H118.52V58.88H109.48L96.8997 21.47V58.88H88.1797Z" fill="white"/>
<path d="M152.9 58.88H142.38L131.53 1.32001H141.23L147.89 44L154.55 1.32001H163.76L152.9 58.88Z" fill="white"/>
<path d="M192.22 46.06H181.69L179.64 58.88H170.43L181.12 1.32001H193.12L204 58.88H194.29L192.22 46.06ZM191 38.16L187 12.59L183 38.16H191Z" fill="white"/>
<path d="M234 18.17V13.82C234 10.2 231.94 8.89 229.15 8.89C226.36 8.89 224.3 10.2 224.3 13.82V17.82C224.3 20.82 225.3 22.09 228 23.66L234.74 27.44C240.25 30.56 243.54 33.11 243.54 39.28V47.59C243.54 56.47 238.03 59.59 229.31 59.59H229.15C220.43 59.59 214.92 56.59 214.92 47.59V41.49H224.3V46.27C224.3 49.81 226.35 51.37 229.23 51.37C232.11 51.37 234.16 49.81 234.16 46.27V41.7C234.16 38.7 233.26 37.26 230.38 35.7L223.72 31.92C218.13 28.71 214.92 26.08 214.92 20.08V12.51C214.92 3.95 221.17 0.660004 229.07 0.660004H229.23C237.12 0.660004 243.37 3.95 243.37 12.51V18.17H234Z" fill="white"/>
</svg>
