<svg width="61" height="87" viewBox="0 0 61 87" fill="none" xmlns="http://www.w3.org/2000/svg">
<path d="M30.5502 0C13.8302 0 0.220215 13.61 0.220215 30.34C0.220215 39.26 8.91022 54.45 16.2102 65.61C16.2802 65.71 16.4002 65.78 16.5202 65.78H16.6202C16.8102 65.78 16.9702 65.64 16.9902 65.45C17.4402 61.53 20.3102 58.57 23.6902 58.57C27.0702 58.57 29.9402 61.53 30.3902 65.45C30.4102 65.64 30.5702 65.78 30.7602 65.78H30.8702C31.0602 65.78 31.2202 65.64 31.2402 65.45C31.6902 61.53 34.5702 58.57 37.9402 58.57C41.3102 58.57 43.9602 61.25 44.5902 64.94C44.6202 65.09 44.7302 65.21 44.8802 65.24C45.0302 65.27 45.1802 65.21 45.2702 65.08C55.6502 49.11 60.9102 37.42 60.9102 30.34C60.9102 13.61 47.3002 0 30.5802 0L30.5502 0ZM30.5502 42.88C23.0702 42.88 17.0002 36.81 17.0002 29.33C17.0002 21.85 23.0702 15.78 30.5502 15.78C38.0302 15.78 44.1002 21.85 44.1002 29.33C44.1002 36.81 38.0302 42.88 30.5502 42.88Z" fill="#F6BF41"/>
<path d="M22.0599 74.66L29.7099 86.48C30.1099 87.1 31.0099 87.1 31.4099 86.48L39.0599 74.66C39.4999 73.99 39.0099 73.1 38.2099 73.1H22.9199C22.1199 73.1 21.6399 73.99 22.0699 74.66" fill="white"/>
</svg>
