<svg width="486" height="104" viewBox="0 0 486 104" fill="none" xmlns="http://www.w3.org/2000/svg">
<path d="M36.22 0.940056H0.88C0.4 0.940056 0 1.33005 0 1.82005V7.31005C0 7.79005 0.39 8.19006 0.88 8.19006H6.22V45.7201H0.88C0.4 45.7201 0 46.1101 0 46.6001V52.0201C0 52.5001 0.39 52.9 0.88 52.9H21.81C22.29 52.9 22.69 52.5101 22.69 52.0201V46.6001C22.69 46.1201 22.3 45.7201 21.81 45.7201H15.81V31.6701H31.83C32.31 31.6701 32.71 31.2801 32.71 30.7901V24.8601C32.71 24.3801 32.32 23.9801 31.83 23.9801H15.8V9.05006H28.9V13.5201C28.9 14.0001 29.29 14.4001 29.78 14.4001H36.22C36.7 14.4001 37.1 14.0101 37.1 13.5201V1.81005C37.1 1.33005 36.71 0.930054 36.22 0.930054V0.940056Z" fill="white"/>
<path d="M59.9598 45.5501C59.7098 45.5501 59.4298 45.5701 59.1098 45.5701C56.2998 45.5701 55.3098 44.2301 55.3098 40.4501V1.82006C55.3098 1.34006 54.9198 0.940063 54.4298 0.940063H41.1798C40.6998 0.940063 40.2998 1.33006 40.2998 1.82006V7.02006C40.2998 7.50006 40.6898 7.90006 41.1798 7.90006H46.0898V41.0401C46.0898 46.6901 47.3898 53.1901 57.4998 53.1901C58.5198 53.1901 59.4598 53.1201 60.0698 53.0601C60.5198 53.0201 60.8598 52.6401 60.8598 52.1901V46.4401C60.8598 46.2001 60.7598 45.9701 60.5898 45.8101C60.4198 45.6401 60.1798 45.5601 59.9498 45.5701L59.9598 45.5501Z" fill="white"/>
<path d="M82.24 14.6901C70.56 14.6901 61.75 23.0901 61.75 34.2301C61.75 45.3701 70.59 53.7701 82.31 53.7701C94.03 53.7701 102.8 45.3701 102.8 34.2301C102.8 23.0901 93.96 14.6901 82.24 14.6901ZM82.31 45.8601C75.97 45.8601 71.19 40.8601 71.19 34.2301C71.19 27.6001 75.97 22.6001 82.31 22.6001C88.65 22.6001 93.36 27.6001 93.36 34.2301C93.36 40.8601 88.61 45.8601 82.31 45.8601Z" fill="white"/>
<path d="M124.3 52.0101V46.8101C124.3 46.3301 123.91 45.9301 123.42 45.9301H118.95V37.8101C118.95 31.5301 121.81 24.2001 129.85 24.2001C130.29 24.2001 130.74 24.2201 131.18 24.2501C131.42 24.2701 131.66 24.1801 131.84 24.0201C132.02 23.8501 132.12 23.6201 132.12 23.3801V15.9701C132.12 15.5201 131.78 15.1401 131.33 15.1001C131.07 15.0801 130.76 15.0601 130.44 15.0601C125.16 15.0601 120.39 18.9101 118.59 24.6401H118.44C118.44 24.6401 118.59 23.6701 118.59 22.3001V20.1001C118.59 17.0501 116.96 15.5601 113.61 15.5601H104.75C104.27 15.5601 103.87 15.9501 103.87 16.4401V21.6401C103.87 22.1201 104.26 22.5201 104.75 22.5201H108.05C109.07 22.5201 109.66 23.1101 109.66 24.1301V45.9301H105.12C104.64 45.9301 104.24 46.3201 104.24 46.8101V52.0101C104.24 52.4901 104.63 52.8901 105.12 52.8901H123.42C123.9 52.8901 124.3 52.5001 124.3 52.0101Z" fill="white"/>
<path d="M136.01 22.5201H140.91V45.9301H136.37C135.89 45.9301 135.49 46.3201 135.49 46.8101V52.0101C135.49 52.4901 135.88 52.8901 136.37 52.8901H154.67C155.15 52.8901 155.55 52.5001 155.55 52.0101V46.8101C155.55 46.3301 155.16 45.9301 154.67 45.9301H150.2V16.4401C150.2 15.9601 149.81 15.5601 149.32 15.5601H136C135.52 15.5601 135.12 15.9501 135.12 16.4401V21.6401C135.12 22.1201 135.51 22.5201 136 22.5201H136.01Z" fill="white"/>
<path d="M197.72 45.9401H195.23C194.16 45.9401 193.62 45.4001 193.62 44.3301V1.82006C193.62 1.34006 193.23 0.940063 192.74 0.940063H179.49C179.01 0.940063 178.61 1.33006 178.61 1.82006V7.02006C178.61 7.50006 179 7.90006 179.49 7.90006H184.4V17.3401C184.4 18.8101 184.54 19.9101 184.55 19.9701H184.4C184.28 19.7501 181.48 14.7001 173.65 14.7001C163.45 14.7001 156.6 22.5501 156.6 34.2401C156.6 45.9301 163 53.7801 172.92 53.7801C182.03 53.7801 185 47.1401 185.14 46.8301H185.28C185.26 46.9101 185.06 47.5601 185.06 48.5101V48.9501C185.06 51.4201 186.84 52.9001 189.82 52.9001H197.72C198.2 52.9001 198.6 52.5101 198.6 52.0201V46.8201C198.6 46.3401 198.21 45.9401 197.72 45.9401ZM184.62 34.4501C184.62 39.7501 182.15 45.9401 175.18 45.9401C169.67 45.9401 165.96 41.2401 165.96 34.2301C165.96 27.2201 169.78 22.6701 175.47 22.6701C180.02 22.6701 184.62 26.3101 184.62 34.4501Z" fill="white"/>
<path d="M237.22 45.9401H234.73C233.66 45.9401 233.12 45.4001 233.12 44.3301V29.4001C233.12 19.9201 227.66 14.6901 217.76 14.6901C210.63 14.6901 205.5 17.5901 203.63 18.8401C203.26 19.0901 203.13 19.5801 203.34 19.9801L205.96 24.9001C206.07 25.1101 206.27 25.2701 206.5 25.3301C206.73 25.3901 206.98 25.3601 207.19 25.2301C208.69 24.3101 212.64 22.1601 216.95 22.1601C221.26 22.1601 223.83 24.3901 223.83 28.6001V29.8401H221.49C202.54 29.8401 200.49 38.6401 200.49 42.4201C200.49 48.0601 204.31 53.7601 212.85 53.7601C221.39 53.7601 224.49 46.9101 224.63 46.5901H224.77C224.75 46.6801 224.55 47.4001 224.55 48.4901V48.9301C224.55 51.4401 226.28 52.8801 229.31 52.8801H237.22C237.7 52.8801 238.1 52.4901 238.1 52.0001V46.8001C238.1 46.3201 237.71 45.9201 237.22 45.9201V45.9401ZM223.9 35.4801V36.7201C223.9 42.6701 219.35 46.8201 215.27 46.8201C212.03 46.8201 209.86 44.7601 209.86 41.7001C209.86 36.0901 218.61 35.4801 222.37 35.4801H223.91H223.9Z" fill="white"/>
<path d="M250.89 8.18005H254.77L270.37 52.3001C270.49 52.6501 270.82 52.8801 271.2 52.8801H279.91C280.28 52.8801 280.61 52.6501 280.74 52.3001L296.34 8.18005H300.29C300.77 8.18005 301.17 7.79006 301.17 7.30006V1.81005C301.17 1.33005 300.78 0.930054 300.29 0.930054H281.77C281.29 0.930054 280.89 1.32005 280.89 1.81005V7.30006C280.89 7.78006 281.28 8.18005 281.77 8.18005H286.31L276.65 37.8101C275.92 39.9301 275.7 42.4701 275.7 42.4901H275.41C275.41 42.4001 275.17 39.8701 274.53 37.8101L264.8 8.18005H269.41C269.89 8.18005 270.29 7.79006 270.29 7.30006V1.81005C270.29 1.33005 269.9 0.930054 269.41 0.930054H250.89C250.41 0.930054 250.01 1.32005 250.01 1.81005V7.30006C250.01 7.78006 250.4 8.18005 250.89 8.18005Z" fill="white"/>
<path d="M301.09 21.6501C301.09 22.1301 301.48 22.5301 301.97 22.5301H306.88V45.9401H302.34C301.86 45.9401 301.46 46.3301 301.46 46.8201V52.0201C301.46 52.5001 301.85 52.9001 302.34 52.9001H320.64C321.12 52.9001 321.52 52.5101 321.52 52.0201V46.8201C321.52 46.3401 321.13 45.9401 320.64 45.9401H316.17V16.4501C316.17 15.9701 315.78 15.5701 315.29 15.5701H301.97C301.49 15.5701 301.09 15.9601 301.09 16.4501V21.6501Z" fill="white"/>
<path d="M315.28 0.940063H307.67C307.184 0.940063 306.79 1.33405 306.79 1.82006V8.33006C306.79 8.81607 307.184 9.21006 307.67 9.21006H315.28C315.766 9.21006 316.16 8.81607 316.16 8.33006V1.82006C316.16 1.33405 315.766 0.940063 315.28 0.940063Z" fill="white"/>
<path d="M325.37 22.5201H328.67C329.69 22.5201 330.28 23.1101 330.28 24.1301V45.9301H325.74C325.26 45.9301 324.86 46.3201 324.86 46.8101V52.0101C324.86 52.4901 325.25 52.8901 325.74 52.8901H344.04C344.52 52.8901 344.92 52.5001 344.92 52.0101V46.8101C344.92 46.3301 344.53 45.9301 344.04 45.9301H339.57V37.8101C339.57 31.5301 342.43 24.2001 350.47 24.2001C350.91 24.2001 351.36 24.2201 351.8 24.2501C352.04 24.2701 352.28 24.1801 352.46 24.0201C352.64 23.8501 352.74 23.6201 352.74 23.3801V15.9701C352.74 15.5201 352.4 15.1401 351.95 15.1001C351.69 15.0801 351.38 15.0601 351.06 15.0601C345.78 15.0601 341.01 18.9101 339.21 24.6401H339.06C339.06 24.6401 339.21 23.6701 339.21 22.3001V20.1001C339.21 17.0501 337.58 15.5601 334.23 15.5601H325.37C324.89 15.5601 324.49 15.9501 324.49 16.4401V21.6401C324.49 22.1201 324.88 22.5201 325.37 22.5201Z" fill="white"/>
<path d="M378.83 45.48C378.6 45.48 378.34 45.49 378.05 45.49C375.26 45.49 370.59 44.55 370.59 38.25V22.52H378.2C378.68 22.52 379.08 22.13 379.08 21.64V16.44C379.08 15.96 378.69 15.56 378.2 15.56H370.59V6.26001C370.59 5.78001 370.2 5.38 369.71 5.38H362.46C361.98 5.38 361.58 5.77001 361.58 6.26001V15.56H356.46C355.98 15.56 355.58 15.95 355.58 16.44V21.64C355.58 22.12 355.97 22.52 356.46 22.52H361.29V39.2C361.29 48.13 366.97 53.25 376.87 53.25C377.75 53.25 378.48 53.19 378.94 53.14C379.38 53.09 379.72 52.72 379.72 52.27V46.36C379.72 46.12 379.62 45.9 379.45 45.73C379.28 45.56 379.05 45.48 378.81 45.49L378.83 45.48Z" fill="white"/>
<path d="M426.86 46.0101H424.15C423.13 46.0101 422.54 45.4201 422.54 44.4001V16.4501C422.54 15.9701 422.15 15.5701 421.66 15.5701H408.41C407.93 15.5701 407.53 15.9601 407.53 16.4501V21.6501C407.53 22.1301 407.92 22.5301 408.41 22.5301H413.24V32.1901C413.24 40.8401 407.92 45.5101 402.92 45.5101C398.82 45.5101 397.07 43.2601 397.07 37.9701V16.4601C397.07 15.9801 396.68 15.5801 396.19 15.5801H382.87C382.39 15.5801 381.99 15.9701 381.99 16.4601V21.6601C381.99 22.1401 382.38 22.5401 382.87 22.5401H387.78V39.5901C387.78 49.0101 391.89 53.7801 400 53.7801C408.9 53.7801 413 47.3201 413.61 45.5901H413.76C413.76 45.5901 413.69 46.4101 413.69 47.3501V48.7401C413.69 52.1901 416.32 52.9101 418.52 52.9101H426.86C427.34 52.9101 427.74 52.5201 427.74 52.0301V46.9001C427.74 46.4201 427.35 46.0201 426.86 46.0201V46.0101Z" fill="white"/>
<path d="M466.33 45.9401H463.84C462.77 45.9401 462.23 45.4001 462.23 44.3301V29.4001C462.23 19.9201 456.77 14.6901 446.87 14.6901C439.74 14.6901 434.61 17.5901 432.74 18.8401C432.37 19.0901 432.24 19.5801 432.45 19.9801L435.07 24.9001C435.18 25.1101 435.38 25.2701 435.61 25.3301C435.84 25.3901 436.09 25.3601 436.3 25.2301C437.8 24.3101 441.75 22.1601 446.06 22.1601C450.37 22.1601 452.94 24.3901 452.94 28.6001V29.8401H450.6C431.65 29.8401 429.6 38.6401 429.6 42.4201C429.6 48.0601 433.42 53.7601 441.96 53.7601C450.5 53.7601 453.6 46.9101 453.74 46.5901H453.88C453.86 46.6801 453.66 47.4001 453.66 48.4901V48.9301C453.66 51.4401 455.39 52.8801 458.42 52.8801H466.33C466.81 52.8801 467.21 52.4901 467.21 52.0001V46.8001C467.21 46.3201 466.82 45.9201 466.33 45.9201V45.9401ZM453.01 35.4801V36.7201C453.01 42.6701 448.46 46.8201 444.38 46.8201C441.14 46.8201 438.97 44.7601 438.97 41.7001C438.97 36.0901 447.72 35.4801 451.48 35.4801H453.02H453.01Z" fill="white"/>
<path d="M484.86 45.8001C484.69 45.6301 484.46 45.5501 484.22 45.5601C483.97 45.5601 483.69 45.5801 483.37 45.5801C480.56 45.5801 479.57 44.2401 479.57 40.4601V1.83008C479.57 1.35008 479.18 0.950073 478.69 0.950073H465.44C464.96 0.950073 464.56 1.34008 464.56 1.83008V7.03008C464.56 7.51008 464.95 7.91008 465.44 7.91008H470.35V41.0501C470.35 46.7001 471.65 53.2001 481.76 53.2001C482.78 53.2001 483.72 53.1301 484.33 53.0701C484.78 53.0301 485.12 52.6501 485.12 52.2001V46.4501C485.12 46.2101 485.02 45.9801 484.85 45.8201L484.86 45.8001Z" fill="white"/>
<path d="M129.6 83.7201C126.19 82.5101 123.96 81.5701 123.96 79.4901C123.96 78.0301 125.17 77.2601 127.46 77.2601C129.34 77.2601 131.24 77.8601 131.24 79.2201V80.3901C131.24 80.8701 131.63 81.2701 132.12 81.2701H137.65C138.13 81.2701 138.53 80.8801 138.53 80.3901V76.4401C138.53 72.1601 132.8 70.2101 127.47 70.2101C123.95 70.2101 115.78 71.1401 115.78 79.7201C115.78 85.7401 120.01 87.8501 124.33 89.5001C124.94 89.7401 125.55 89.9701 126.15 90.1901C129.38 91.3701 131.34 92.2301 131.34 94.1501C131.34 96.6001 128 96.7901 126.97 96.7901C124.17 96.7901 122.28 95.7301 122.28 94.1501V92.6101C122.28 92.1301 121.89 91.7301 121.4 91.7301H115.87C115.39 91.7301 114.99 92.1201 114.99 92.6101V95.9201C114.99 99.7301 118.73 103.84 126.96 103.84C136.22 103.84 139.52 98.5701 139.52 93.6501C139.52 87.6801 134.83 85.5501 129.6 83.7301V83.7201Z" fill="white"/>
<path d="M183.06 92.1801H177.53C177.05 92.1801 176.65 92.5701 176.65 93.0601V94.6901C176.65 96.9801 171.29 97.0101 171.24 97.0101C165.52 97.0101 161.82 92.8801 161.82 86.5001C161.82 80.6601 165.25 77.0401 170.78 77.0401C171.34 77.0401 176.29 77.1001 176.29 79.3601V80.9901C176.29 81.4701 176.68 81.8701 177.17 81.8701H182.7C183.18 81.8701 183.58 81.4801 183.58 80.9901V76.7201C183.58 71.3801 174.09 70.2101 170.43 70.2101C160.73 70.2101 153.41 77.4101 153.41 86.9501C153.41 96.4901 160.82 103.83 170.66 103.83C174.11 103.83 183.95 102.65 183.95 97.4101V93.0501C183.95 92.5701 183.56 92.1701 183.07 92.1701L183.06 92.1801Z" fill="white"/>
<path d="M233.22 70.75H219.54C219.06 70.75 218.66 71.14 218.66 71.63V75.8C218.66 76.28 219.05 76.68 219.54 76.68H222.31V83.96H210.66V76.68H213.43C213.91 76.68 214.31 76.29 214.31 75.8V71.63C214.31 71.15 213.92 70.75 213.43 70.75H199.76C199.28 70.75 198.88 71.14 198.88 71.63V75.8C198.88 76.28 199.27 76.68 199.76 76.68H202.53V97.38H199.76C199.28 97.38 198.88 97.77 198.88 98.26V102.43C198.88 102.91 199.27 103.31 199.76 103.31H213.43C213.91 103.31 214.31 102.92 214.31 102.43V98.26C214.31 97.78 213.92 97.38 213.43 97.38H210.66V90.33H222.31V97.38H219.54C219.06 97.38 218.66 97.77 218.66 98.26V102.43C218.66 102.91 219.05 103.31 219.54 103.31H233.22C233.7 103.31 234.1 102.92 234.1 102.43V98.26C234.1 97.78 233.71 97.38 233.22 97.38H230.45V76.68H233.22C233.7 76.68 234.1 76.29 234.1 75.8V71.63C234.1 71.15 233.71 70.75 233.22 70.75Z" fill="white"/>
<path d="M265.02 70.2101C255.27 70.2101 247.91 77.3501 247.91 86.8201C247.91 96.2901 255.27 103.84 265.02 103.84C274.77 103.84 282.13 96.5201 282.13 86.8201C282.13 77.1201 274.77 70.2101 265.02 70.2101ZM265.02 96.7801C260.15 96.7801 256.33 92.4001 256.33 86.8201C256.33 81.2401 260.15 77.2601 265.02 77.2601C269.89 77.2601 273.71 81.4601 273.71 86.8201C273.71 92.1801 269.89 96.7801 265.02 96.7801Z" fill="white"/>
<path d="M313.04 70.2101C303.29 70.2101 295.93 77.3501 295.93 86.8201C295.93 96.2901 303.29 103.84 313.04 103.84C322.79 103.84 330.15 96.5201 330.15 86.8201C330.15 77.1201 322.79 70.2101 313.04 70.2101ZM313.04 96.7801C308.17 96.7801 304.35 92.4001 304.35 86.8201C304.35 81.2401 308.17 77.2601 313.04 77.2601C317.91 77.2601 321.73 81.4601 321.73 86.8201C321.73 92.1801 317.91 96.7801 313.04 96.7801Z" fill="white"/>
<path d="M368.73 92.14H363.65C363.17 92.14 362.77 92.53 362.77 93.02V96.92H355.76V77.13H358.53C359.01 77.13 359.41 76.74 359.41 76.25V71.63C359.41 71.15 359.02 70.75 358.53 70.75H344.85C344.37 70.75 343.97 71.14 343.97 71.63V76.25C343.97 76.73 344.36 77.13 344.85 77.13H347.62V97.38H344.85C344.37 97.38 343.97 97.77 343.97 98.26V102.43C343.97 102.91 344.36 103.31 344.85 103.31H368.72C369.2 103.31 369.6 102.92 369.6 102.43V93.03C369.6 92.55 369.21 92.15 368.72 92.15L368.73 92.14Z" fill="white"/>
<path d="M371.33 72.01H369.97C369.66 72.01 369.51 71.86 369.51 71.55V71.21C369.51 70.9 369.66 70.75 369.97 70.75H374.16C374.47 70.75 374.62 70.9 374.62 71.21V71.55C374.62 71.86 374.47 72.01 374.16 72.01H372.8V76.29C372.8 76.6 372.65 76.75 372.34 76.75H371.79C371.48 76.75 371.33 76.6 371.33 76.29V72.01Z" fill="white"/>
<path d="M375.51 71.2C375.54 70.9 375.7 70.75 375.99 70.75H376.75C377.01 70.75 377.19 70.88 377.27 71.13L378.02 73.29C378.05 73.39 378.09 73.49 378.13 73.61C378.17 73.72 378.2 73.83 378.23 73.93L378.33 74.28H378.35L378.45 73.93C378.48 73.83 378.51 73.72 378.55 73.61C378.59 73.5 378.62 73.39 378.65 73.29L379.4 71.13C379.48 70.88 379.66 70.75 379.92 70.75H380.68C380.97 70.75 381.13 70.9 381.16 71.2L381.57 76.28C381.58 76.43 381.55 76.55 381.47 76.63C381.39 76.71 381.28 76.76 381.13 76.76H380.58C380.29 76.76 380.13 76.61 380.1 76.31L379.95 74.05C379.94 73.94 379.93 73.82 379.93 73.7C379.93 73.58 379.93 73.47 379.93 73.38C379.93 73.27 379.93 73.16 379.95 73.04H379.93C379.89 73.16 379.85 73.28 379.81 73.4C379.78 73.5 379.74 73.61 379.7 73.73C379.66 73.85 379.62 73.95 379.59 74.05L379.09 75.42C379 75.67 378.82 75.79 378.56 75.79H378.09C377.83 75.79 377.65 75.67 377.56 75.42L377.07 74.05C377.04 73.95 377 73.85 376.96 73.73C376.92 73.61 376.88 73.5 376.85 73.4C376.81 73.28 376.77 73.16 376.73 73.04H376.71C376.71 73.15 376.71 73.26 376.71 73.38C376.71 73.48 376.71 73.58 376.71 73.7C376.71 73.82 376.71 73.94 376.7 74.05L376.55 76.31C376.52 76.61 376.36 76.76 376.07 76.76H375.52C375.37 76.76 375.26 76.72 375.18 76.63C375.1 76.55 375.07 76.43 375.08 76.28L375.5 71.2H375.51Z" fill="white"/>
</svg>
